<svg id="Capa_1" enable-background="new 0 0 512 512" height="512" viewBox="0 0 512 512" width="512" xmlns="http://www.w3.org/2000/svg" xmlns:xlink="http://www.w3.org/1999/xlink"><linearGradient id="lg1"><stop offset="0" stop-color="#fd5900"/><stop offset="1" stop-color="#ffde00"/></linearGradient><linearGradient id="SVGID_1_" gradientUnits="userSpaceOnUse" x1="256" x2="256" xlink:href="#lg1" y1="512" y2="336.919"/><linearGradient id="SVGID_2_" gradientUnits="userSpaceOnUse" x1="256" x2="256" y1="391" y2="0"><stop offset="0" stop-color="#ffe59a"/><stop offset="1" stop-color="#ffffd5"/></linearGradient><linearGradient id="SVGID_3_" gradientUnits="userSpaceOnUse" x1="256" x2="256" xlink:href="#lg1" y1="283.812" y2="91"/><g><path d="m346 336.919h-180c-8.284 0-15 6.716-15 15v145.081c0 5.532 3.045 10.615 7.922 13.225 4.878 2.611 10.795 2.324 15.398-.744l81.68-54.453 81.68 54.453c4.609 3.073 10.529 3.351 15.398.744 4.877-2.61 7.922-7.693 7.922-13.225v-145.081c0-8.284-6.716-15-15-15z" fill="url(#SVGID_1_)"/><path d="m256 391c-107.523 0-195-87.477-195-195 0-108.075 87.477-196 195-196s195 87.925 195 196c0 107.523-87.477 195-195 195z" fill="url(#SVGID_2_)"/><path d="m301.92 282.088-45.92-24.141-45.92 24.142c-5.057 2.658-11.178 2.213-15.797-1.142-4.619-3.356-6.933-9.043-5.968-14.671l8.77-51.133-37.15-36.213c-4.088-3.985-5.56-9.946-3.795-15.376s6.458-9.388 12.108-10.209l51.341-7.46 22.96-46.523c2.527-5.12 7.741-8.362 13.451-8.362s10.924 3.242 13.451 8.361l22.96 46.523 51.341 7.46c5.65.821 10.344 4.779 12.108 10.209s.293 11.391-3.795 15.376l-37.15 36.213 8.77 51.133c.965 5.627-1.349 11.315-5.968 14.671-4.575 3.326-10.698 3.823-15.797 1.142z" fill="url(#SVGID_3_)"/></g></svg>